<svg width="46" height="44" viewBox="0 0 46 44" fill="none" xmlns="http://www.w3.org/2000/svg">
<path d="M14.0951 0.388715C17.3532 1.25049 19.7423 3.78459 21.621 6.45053C23.2454 8.79427 24.6143 11.3148 25.7501 13.9124C27.9665 19.052 29.1839 24.6328 29.3366 30.2331C29.4177 33.3826 29.177 36.5646 28.5596 39.6681C28.4135 40.455 27.1833 40.197 27.3515 39.4212C28.3957 34.0899 28.3759 28.5564 27.3354 23.2311C26.3059 17.9391 24.3001 12.8222 21.3614 8.29069C19.5496 5.49185 17.2282 2.49216 13.8482 1.59682C13.5268 1.51842 13.2947 1.20735 13.351 0.874818C13.4294 0.553426 13.7737 0.310309 14.0951 0.388715Z" fill="#FF150A"/>
<path d="M20.888 29.7025C22.578 32.4123 24.3013 35.1112 25.9914 37.821C26.1902 38.1431 26.378 38.4318 26.5768 38.7539C26.7646 39.0427 26.919 39.3979 27.1846 39.6425C27.5164 39.976 27.9386 39.6332 28.2165 39.3567C29.3502 38.3171 30.4174 37.1886 31.529 36.0824C32.8074 34.8102 34.1079 33.5493 35.3862 32.2771C35.942 31.724 36.8825 32.558 36.3046 33.0999C35.0818 34.3168 33.8591 35.5336 32.6142 36.7393C31.447 37.9008 30.313 39.1067 29.0905 40.2127C28.5904 40.655 27.9906 41.0749 27.3032 41.0067C26.4607 40.916 25.9967 40.183 25.5991 39.5388C24.7043 38.1173 23.8096 36.6957 22.9148 35.2741C21.8764 33.6415 20.8602 32.02 19.8329 30.3653C19.4131 29.71 20.446 29.0361 20.888 29.7025Z" fill="#FF150A"/>
</svg>
