<svg width="40" height="40" viewBox="0 0 40 40" fill="none" xmlns="http://www.w3.org/2000/svg">
<path d="M14.2969 8.35938H25.7031C26.3503 8.35938 26.875 7.83469 26.875 7.1875V3.75C26.875 3.10281 26.3503 2.57812 25.7031 2.57812H23.5055C23.039 1.08586 21.6439 0 20 0C18.3531 0 16.9559 1.08984 16.492 2.58625L14.2997 2.57812C13.6455 2.57812 13.125 3.10617 13.125 3.75V7.1875C13.125 7.83469 13.6497 8.35938 14.2969 8.35938Z" fill="url(#paint0_radial_30_285)"/>
<path d="M14.375 19.375C15.1085 19.375 15.7031 18.7804 15.7031 18.0469C15.7031 17.3134 15.1085 16.7188 14.375 16.7188C13.6415 16.7188 13.0469 17.3134 13.0469 18.0469C13.0469 18.7804 13.6415 19.375 14.375 19.375Z" fill="black"/>
<path d="M14.375 19.375C15.1085 19.375 15.7031 18.7804 15.7031 18.0469C15.7031 17.3134 15.1085 16.7188 14.375 16.7188C13.6415 16.7188 13.0469 17.3134 13.0469 18.0469C13.0469 18.7804 13.6415 19.375 14.375 19.375Z" fill="url(#paint1_radial_30_285)"/>
<path d="M31.25 5.07812H29.2188V7.1875C29.2188 9.12602 27.6417 10.7031 25.7031 10.7031H14.2969C12.3583 10.7031 10.7812 9.12602 10.7812 7.1875V5.07812H8.75C6.72531 5.07812 5.07812 6.72531 5.07812 8.75V36.3281C5.07812 38.3528 6.72531 40 8.75 40H31.25C33.2747 40 34.9219 38.3528 34.9219 36.3281V8.75C34.9219 6.72531 33.2747 5.07812 31.25 5.07812ZM10.7031 18.0469C10.7031 16.0222 12.3503 14.375 14.375 14.375C16.3997 14.375 18.0469 16.0222 18.0469 18.0469C18.0469 20.0716 16.3997 21.7188 14.375 21.7188C12.3503 21.7188 10.7031 20.0716 10.7031 18.0469ZM28.3286 32.8433C28.7862 33.3009 28.7862 34.0429 28.3286 34.5005C27.8709 34.9582 27.129 34.9582 26.6713 34.5005L25.625 33.4541L24.5786 34.5005C24.1209 34.9582 23.379 34.9582 22.9213 34.5005C22.4637 34.043 22.4637 33.3009 22.9213 32.8433L23.9677 31.7969L22.9213 30.7505C22.4637 30.2929 22.4637 29.5509 22.9213 29.0932C23.3789 28.6356 24.1209 28.6356 24.5786 29.0932L25.625 30.1396L26.6714 29.0932C27.129 28.6356 27.871 28.6356 28.3287 29.0932C28.7863 29.5508 28.7863 30.2928 28.3287 30.7505L27.2823 31.7969L28.3286 32.8433ZM28.9536 18.2505C28.4959 18.7081 27.754 18.7081 27.2963 18.2505L26.7969 17.751V18.0469C26.7969 22.7075 23.5824 24.5809 20.7464 26.2338C17.9564 27.8598 15.5469 29.2642 15.5469 33.0469V33.6719C15.5469 34.3191 15.0222 34.8438 14.375 34.8438C13.7278 34.8438 13.2031 34.3191 13.2031 33.6719V33.0469C13.2031 30.7436 13.8977 28.8634 15.3264 27.2988C16.5345 25.9759 18.0757 25.0776 19.5662 24.2089C22.2966 22.6177 24.4531 21.3607 24.4531 18.0469V17.751L23.9536 18.2505C23.496 18.708 22.754 18.708 22.2963 18.2505C21.8387 17.7929 21.8387 17.0509 22.2963 16.5932L24.7963 14.0932C25.2539 13.6356 25.9959 13.6356 26.4536 14.0932L28.9536 16.5932C29.4112 17.0509 29.4112 17.7929 28.9536 18.2505Z" fill="black"/>
<path d="M31.25 5.07812H29.2188V7.1875C29.2188 9.12602 27.6417 10.7031 25.7031 10.7031H14.2969C12.3583 10.7031 10.7812 9.12602 10.7812 7.1875V5.07812H8.75C6.72531 5.07812 5.07812 6.72531 5.07812 8.75V36.3281C5.07812 38.3528 6.72531 40 8.75 40H31.25C33.2747 40 34.9219 38.3528 34.9219 36.3281V8.75C34.9219 6.72531 33.2747 5.07812 31.25 5.07812ZM10.7031 18.0469C10.7031 16.0222 12.3503 14.375 14.375 14.375C16.3997 14.375 18.0469 16.0222 18.0469 18.0469C18.0469 20.0716 16.3997 21.7188 14.375 21.7188C12.3503 21.7188 10.7031 20.0716 10.7031 18.0469ZM28.3286 32.8433C28.7862 33.3009 28.7862 34.0429 28.3286 34.5005C27.8709 34.9582 27.129 34.9582 26.6713 34.5005L25.625 33.4541L24.5786 34.5005C24.1209 34.9582 23.379 34.9582 22.9213 34.5005C22.4637 34.043 22.4637 33.3009 22.9213 32.8433L23.9677 31.7969L22.9213 30.7505C22.4637 30.2929 22.4637 29.5509 22.9213 29.0932C23.3789 28.6356 24.1209 28.6356 24.5786 29.0932L25.625 30.1396L26.6714 29.0932C27.129 28.6356 27.871 28.6356 28.3287 29.0932C28.7863 29.5508 28.7863 30.2928 28.3287 30.7505L27.2823 31.7969L28.3286 32.8433ZM28.9536 18.2505C28.4959 18.7081 27.754 18.7081 27.2963 18.2505L26.7969 17.751V18.0469C26.7969 22.7075 23.5824 24.5809 20.7464 26.2338C17.9564 27.8598 15.5469 29.2642 15.5469 33.0469V33.6719C15.5469 34.3191 15.0222 34.8438 14.375 34.8438C13.7278 34.8438 13.2031 34.3191 13.2031 33.6719V33.0469C13.2031 30.7436 13.8977 28.8634 15.3264 27.2988C16.5345 25.9759 18.0757 25.0776 19.5662 24.2089C22.2966 22.6177 24.4531 21.3607 24.4531 18.0469V17.751L23.9536 18.2505C23.496 18.708 22.754 18.708 22.2963 18.2505C21.8387 17.7929 21.8387 17.0509 22.2963 16.5932L24.7963 14.0932C25.2539 13.6356 25.9959 13.6356 26.4536 14.0932L28.9536 16.5932C29.4112 17.0509 29.4112 17.7929 28.9536 18.2505Z" fill="url(#paint2_radial_30_285)"/>
<path d="M31.25 5.07812H29.2188V7.1875C29.2188 9.12602 27.6417 10.7031 25.7031 10.7031H14.2969C12.3583 10.7031 10.7812 9.12602 10.7812 7.1875V5.07812H8.75C6.72531 5.07812 5.07812 6.72531 5.07812 8.75V36.3281C5.07812 38.3528 6.72531 40 8.75 40H31.25C33.2747 40 34.9219 38.3528 34.9219 36.3281V8.75C34.9219 6.72531 33.2747 5.07812 31.25 5.07812ZM10.7031 18.0469C10.7031 16.0222 12.3503 14.375 14.375 14.375C16.3997 14.375 18.0469 16.0222 18.0469 18.0469C18.0469 20.0716 16.3997 21.7188 14.375 21.7188C12.3503 21.7188 10.7031 20.0716 10.7031 18.0469ZM28.3286 32.8433C28.7862 33.3009 28.7862 34.0429 28.3286 34.5005C27.8709 34.9582 27.129 34.9582 26.6713 34.5005L25.625 33.4541L24.5786 34.5005C24.1209 34.9582 23.379 34.9582 22.9213 34.5005C22.4637 34.043 22.4637 33.3009 22.9213 32.8433L23.9677 31.7969L22.9213 30.7505C22.4637 30.2929 22.4637 29.5509 22.9213 29.0932C23.3789 28.6356 24.1209 28.6356 24.5786 29.0932L25.625 30.1396L26.6714 29.0932C27.129 28.6356 27.871 28.6356 28.3287 29.0932C28.7863 29.5508 28.7863 30.2928 28.3287 30.7505L27.2823 31.7969L28.3286 32.8433ZM28.9536 18.2505C28.4959 18.7081 27.754 18.7081 27.2963 18.2505L26.7969 17.751V18.0469C26.7969 22.7075 23.5824 24.5809 20.7464 26.2338C17.9564 27.8598 15.5469 29.2642 15.5469 33.0469V33.6719C15.5469 34.3191 15.0222 34.8438 14.375 34.8438C13.7278 34.8438 13.2031 34.3191 13.2031 33.6719V33.0469C13.2031 30.7436 13.8977 28.8634 15.3264 27.2988C16.5345 25.9759 18.0757 25.0776 19.5662 24.2089C22.2966 22.6177 24.4531 21.3607 24.4531 18.0469V17.751L23.9536 18.2505C23.496 18.708 22.754 18.708 22.2963 18.2505C21.8387 17.7929 21.8387 17.0509 22.2963 16.5932L24.7963 14.0932C25.2539 13.6356 25.9959 13.6356 26.4536 14.0932L28.9536 16.5932C29.4112 17.0509 29.4112 17.7929 28.9536 18.2505Z" fill="url(#paint3_radial_30_285)"/>
<defs>
<radialGradient id="paint0_radial_30_285" cx="0" cy="0" r="1" gradientUnits="userSpaceOnUse" gradientTransform="translate(20 4.17969) scale(6.875 4.17969)">
<stop stop-color="#379863"/>
<stop offset="1" stop-color="#50CA88"/>
</radialGradient>
<radialGradient id="paint1_radial_30_285" cx="0" cy="0" r="1" gradientUnits="userSpaceOnUse" gradientTransform="translate(14.375 18.0469) scale(1.32812)">
<stop stop-color="#379863"/>
<stop offset="1" stop-color="#50CA88"/>
</radialGradient>
<radialGradient id="paint2_radial_30_285" cx="0" cy="0" r="1" gradientUnits="userSpaceOnUse" gradientTransform="translate(20 22.5391) scale(14.9219 17.4609)">
<stop stop-color="#B68300"/>
<stop offset="1" stop-color="#ECBF47"/>
</radialGradient>
<radialGradient id="paint3_radial_30_285" cx="0" cy="0" r="1" gradientUnits="userSpaceOnUse" gradientTransform="translate(20 22.5391) scale(14.9219 17.4609)">
<stop stop-color="#379863"/>
<stop offset="1" stop-color="#50CA88"/>
</radialGradient>
</defs>
</svg>
