<svg width="40" height="40" viewBox="0 0 40 40" fill="none" xmlns="http://www.w3.org/2000/svg">
<path d="M33.2866 8.73952C33.2866 9.135 33.5643 7.98032 29.5737 22.8702C29.3526 22.0125 29.4189 23.8677 29.4189 7.58226C30.5643 5.8379 33.2866 6.66113 33.2866 8.73952ZM28.1285 2.45161V20.0016C23.4334 11.8708 25.5036 15.4542 23.2253 11.5081V2.45161C23.2253 1.1 24.3253 0 25.6769 0C27.0496 0 28.1285 1.11258 28.1285 2.45161ZM25.2939 17.6718L23.3906 15.7694C21.7336 14.1116 19.5543 13.1613 16.9568 13.1613L12.6084 5.90968C11.9375 4.74395 12.33 3.2446 13.5076 2.56452C14.692 1.88153 16.1865 2.30218 16.8568 3.4621C23.4905 14.4867 20.0956 8.66774 25.2939 17.6718Z" fill="black"/>
<path d="M33.2866 8.73952C33.2866 9.135 33.5643 7.98032 29.5737 22.8702C29.3526 22.0125 29.4189 23.8677 29.4189 7.58226C30.5643 5.8379 33.2866 6.66113 33.2866 8.73952ZM28.1285 2.45161V20.0016C23.4334 11.8708 25.5036 15.4542 23.2253 11.5081V2.45161C23.2253 1.1 24.3253 0 25.6769 0C27.0496 0 28.1285 1.11258 28.1285 2.45161ZM25.2939 17.6718L23.3906 15.7694C21.7336 14.1116 19.5543 13.1613 16.9568 13.1613L12.6084 5.90968C11.9375 4.74395 12.33 3.2446 13.5076 2.56452C14.692 1.88153 16.1865 2.30218 16.8568 3.4621C23.4905 14.4867 20.0956 8.66774 25.2939 17.6718Z" fill="url(#paint0_radial_1_32)"/>
<path d="M33.2866 8.73952C33.2866 9.135 33.5643 7.98032 29.5737 22.8702C29.3526 22.0125 29.4189 23.8677 29.4189 7.58226C30.5643 5.8379 33.2866 6.66113 33.2866 8.73952ZM28.1285 2.45161V20.0016C23.4334 11.8708 25.5036 15.4542 23.2253 11.5081V2.45161C23.2253 1.1 24.3253 0 25.6769 0C27.0496 0 28.1285 1.11258 28.1285 2.45161ZM25.2939 17.6718L23.3906 15.7694C21.7336 14.1116 19.5543 13.1613 16.9568 13.1613L12.6084 5.90968C11.9375 4.74395 12.33 3.2446 13.5076 2.56452C14.692 1.88153 16.1865 2.30218 16.8568 3.4621C23.4905 14.4867 20.0956 8.66774 25.2939 17.6718Z" fill="url(#paint1_radial_1_32)"/>
<path d="M28.8059 26.9831C28.8059 31.0105 27.2045 34.8926 24.3438 37.7556C22.9478 39.15 21.0938 39.9468 19.1228 39.9976C18.8088 39.9976 20.3316 40 15.6987 40C10.7422 40 6.70914 35.9677 6.70914 31.0105V18.6234C6.70914 18.2202 7.03736 17.8927 7.44059 17.8927C7.50381 17.8927 7.55575 17.8891 7.63333 17.8677C7.83422 17.9475 9.64809 17.9198 10.8753 19.696C11.6678 20.7549 11.6124 21.9885 11.6124 22.7524C11.6124 25.5129 12.8043 28.1379 14.8809 29.9564C17.1298 31.9249 20.6478 30.3107 20.6478 27.3395C20.647 24.0406 20.7738 23.2802 20.1995 21.9766C19.6855 20.8154 19.0388 20.314 18.172 19.5234C17.877 19.2871 18.241 19.3548 12.1817 19.3548C11.3831 17.9349 9.8847 16.8588 8.09946 16.6427C8.17204 15.9485 8.54486 15.2856 9.18252 14.8597C10.2432 14.3423 9.05906 14.4516 17.0954 14.4516C19.1285 14.4516 21.0406 15.2435 22.4785 16.6814L27.7874 21.9903L28.189 22.6863C28.5653 24.0686 28.8059 25.3408 28.8059 26.9831Z" fill="black"/>
<path d="M28.8059 26.9831C28.8059 31.0105 27.2045 34.8926 24.3438 37.7556C22.9478 39.15 21.0938 39.9468 19.1228 39.9976C18.8088 39.9976 20.3316 40 15.6987 40C10.7422 40 6.70914 35.9677 6.70914 31.0105V18.6234C6.70914 18.2202 7.03736 17.8927 7.44059 17.8927C7.50381 17.8927 7.55575 17.8891 7.63333 17.8677C7.83422 17.9475 9.64809 17.9198 10.8753 19.696C11.6678 20.7549 11.6124 21.9885 11.6124 22.7524C11.6124 25.5129 12.8043 28.1379 14.8809 29.9564C17.1298 31.9249 20.6478 30.3107 20.6478 27.3395C20.647 24.0406 20.7738 23.2802 20.1995 21.9766C19.6855 20.8154 19.0388 20.314 18.172 19.5234C17.877 19.2871 18.241 19.3548 12.1817 19.3548C11.3831 17.9349 9.8847 16.8588 8.09946 16.6427C8.17204 15.9485 8.54486 15.2856 9.18252 14.8597C10.2432 14.3423 9.05906 14.4516 17.0954 14.4516C19.1285 14.4516 21.0406 15.2435 22.4785 16.6814L27.7874 21.9903L28.189 22.6863C28.5653 24.0686 28.8059 25.3408 28.8059 26.9831Z" fill="url(#paint2_radial_1_32)"/>
<path d="M28.8059 26.9831C28.8059 31.0105 27.2045 34.8926 24.3438 37.7556C22.9478 39.15 21.0938 39.9468 19.1228 39.9976C18.8088 39.9976 20.3316 40 15.6987 40C10.7422 40 6.70914 35.9677 6.70914 31.0105V18.6234C6.70914 18.2202 7.03736 17.8927 7.44059 17.8927C7.50381 17.8927 7.55575 17.8891 7.63333 17.8677C7.83422 17.9475 9.64809 17.9198 10.8753 19.696C11.6678 20.7549 11.6124 21.9885 11.6124 22.7524C11.6124 25.5129 12.8043 28.1379 14.8809 29.9564C17.1298 31.9249 20.6478 30.3107 20.6478 27.3395C20.647 24.0406 20.7738 23.2802 20.1995 21.9766C19.6855 20.8154 19.0388 20.314 18.172 19.5234C17.877 19.2871 18.241 19.3548 12.1817 19.3548C11.3831 17.9349 9.8847 16.8588 8.09946 16.6427C8.17204 15.9485 8.54486 15.2856 9.18252 14.8597C10.2432 14.3423 9.05906 14.4516 17.0954 14.4516C19.1285 14.4516 21.0406 15.2435 22.4785 16.6814L27.7874 21.9903L28.189 22.6863C28.5653 24.0686 28.8059 25.3408 28.8059 26.9831Z" fill="url(#paint3_radial_1_32)"/>
<defs>
<radialGradient id="paint0_radial_1_32" cx="0" cy="0" r="1" gradientUnits="userSpaceOnUse" gradientTransform="translate(22.7862 11.4351) scale(10.5046 11.4351)">
<stop stop-color="#B68300"/>
<stop offset="1" stop-color="#ECBF47"/>
</radialGradient>
<radialGradient id="paint1_radial_1_32" cx="0" cy="0" r="1" gradientUnits="userSpaceOnUse" gradientTransform="translate(22.7862 11.4351) scale(10.5046 11.4351)">
<stop stop-color="#379863"/>
<stop offset="1" stop-color="#50CA88"/>
</radialGradient>
<radialGradient id="paint2_radial_1_32" cx="0" cy="0" r="1" gradientUnits="userSpaceOnUse" gradientTransform="translate(17.7575 27.221) scale(11.0484 12.779)">
<stop stop-color="#B68300"/>
<stop offset="1" stop-color="#ECBF47"/>
</radialGradient>
<radialGradient id="paint3_radial_1_32" cx="0" cy="0" r="1" gradientUnits="userSpaceOnUse" gradientTransform="translate(17.7575 27.221) scale(11.0484 12.779)">
<stop stop-color="#379863"/>
<stop offset="1" stop-color="#50CA88"/>
</radialGradient>
</defs>
</svg>
