<svg width="40" height="40" viewBox="0 0 40 40" fill="none" xmlns="http://www.w3.org/2000/svg">
<g clip-path="url(#clip0_1_48)">
<path d="M16.4293 7.95896L17.637 11.2244C18.2997 13.0145 19.3598 14.6402 20.7418 15.9858C22.1238 17.3313 23.7936 18.3634 25.6322 19.0086L28.9861 20.1844C29.0524 20.2081 29.1095 20.251 29.1499 20.3073C29.1903 20.3636 29.212 20.4306 29.212 20.4993C29.212 20.5679 29.1903 20.635 29.1499 20.6913C29.1095 20.7476 29.0524 20.7904 28.9861 20.8141L25.6322 21.9899C23.7936 22.6351 22.1238 23.6673 20.7418 25.0128C19.3598 26.3583 18.2997 27.9841 17.637 29.7742L16.4293 33.0396C16.4051 33.1041 16.361 33.1597 16.3032 33.199C16.2454 33.2384 16.1765 33.2595 16.106 33.2595C16.0354 33.2595 15.9666 33.2384 15.9088 33.199C15.8509 33.1597 15.8069 33.1041 15.7826 33.0396L14.5749 29.7742C13.9123 27.9841 12.8521 26.3583 11.4702 25.0128C10.0882 23.6673 8.41837 22.6351 6.57973 21.9899L3.22584 20.8141C3.15961 20.7904 3.10244 20.7476 3.06205 20.6913C3.02166 20.635 3 20.5679 3 20.4993C3 20.4306 3.02166 20.3636 3.06205 20.3073C3.10244 20.251 3.15961 20.2081 3.22584 20.1844L6.57973 19.0086C8.41837 18.3634 10.0882 17.3313 11.4702 15.9858C12.8521 14.6402 13.9123 13.0145 14.5749 11.2244L15.7826 7.95896C15.8062 7.89383 15.85 7.83743 15.9079 7.79754C15.9658 7.75764 16.035 7.73622 16.106 7.73622C16.1769 7.73622 16.2461 7.75764 16.304 7.79754C16.3619 7.83743 16.4057 7.89383 16.4293 7.95896ZM31.5264 0.111747L32.1385 1.76495C32.4743 2.67131 33.0113 3.49445 33.7111 4.17578C34.4109 4.85711 35.2563 5.37987 36.1872 5.70686L37.8852 6.30283C37.9189 6.31475 37.9479 6.33647 37.9685 6.36502C37.989 6.39357 38 6.42758 38 6.46244C38 6.49729 37.989 6.53131 37.9685 6.55986C37.9479 6.58841 37.9189 6.61012 37.8852 6.62205L36.1872 7.21802C35.2563 7.54501 34.4109 8.06777 33.7111 8.7491C33.0113 9.43043 32.4743 10.2536 32.1385 11.1599L31.5264 12.8131C31.5141 12.8459 31.4918 12.8742 31.4625 12.8942C31.4332 12.9142 31.3982 12.9249 31.3624 12.9249C31.3266 12.9249 31.2917 12.9142 31.2624 12.8942C31.233 12.8742 31.2107 12.8459 31.1985 12.8131L30.5864 11.1599C30.2505 10.2536 29.7136 9.43043 29.0138 8.7491C28.314 8.06777 27.4686 7.54501 26.5376 7.21802L24.8396 6.62205C24.806 6.61012 24.7769 6.58841 24.7564 6.55986C24.7359 6.53131 24.7249 6.49729 24.7249 6.46244C24.7249 6.42758 24.7359 6.39357 24.7564 6.36502C24.7769 6.33647 24.806 6.31475 24.8396 6.30283L26.5376 5.70686C27.4686 5.37987 28.314 4.85711 29.0138 4.17578C29.7136 3.49445 30.2505 2.67131 30.5864 1.76495L31.1985 0.111747C31.2107 0.0789946 31.233 0.0507042 31.2624 0.0307136C31.2917 0.010723 31.3266 0 31.3624 0C31.3982 0 31.4332 0.010723 31.4625 0.0307136C31.4918 0.0507042 31.5141 0.0789946 31.5264 0.111747ZM31.5264 28.1869L32.1385 29.8401C32.4743 30.7464 33.0113 31.5696 33.7111 32.2509C34.4109 32.9322 35.2563 33.455 36.1872 33.782L37.8852 34.378C37.9189 34.3899 37.9479 34.4116 37.9685 34.4401C37.989 34.4687 38 34.5027 38 34.5376C38 34.5724 37.989 34.6064 37.9685 34.635C37.9479 34.6635 37.9189 34.6852 37.8852 34.6972L36.1872 35.2931C35.2563 35.6201 34.4109 36.1429 33.7111 36.8242C33.0113 37.5056 32.4743 38.3287 32.1385 39.2351L31.5264 40.8883C31.5141 40.921 31.4918 40.9493 31.4625 40.9693C31.4332 40.9893 31.3982 41 31.3624 41C31.3266 41 31.2917 40.9893 31.2624 40.9693C31.233 40.9493 31.2107 40.921 31.1985 40.8883L30.5864 39.2351C30.2505 38.3287 29.7136 37.5056 29.0138 36.8242C28.314 36.1429 27.4686 35.6201 26.5376 35.2931L24.8396 34.6972C24.806 34.6852 24.7769 34.6635 24.7564 34.635C24.7359 34.6064 24.7249 34.5724 24.7249 34.5376C24.7249 34.5027 24.7359 34.4687 24.7564 34.4401C24.7769 34.4116 24.806 34.3899 24.8396 34.378L26.5376 33.782C27.4686 33.455 28.314 32.9322 29.0138 32.2509C29.7136 31.5696 30.2505 30.7464 30.5864 29.8401L31.1985 28.1869C31.2541 28.0375 31.4722 28.0375 31.5264 28.1869Z" fill="url(#paint0_radial_1_48)"/>
</g>
<defs>
<radialGradient id="paint0_radial_1_48" cx="0" cy="0" r="1" gradientUnits="userSpaceOnUse" gradientTransform="translate(20.5 20.5) scale(17.5 20.5)">
<stop stop-color="#379863"/>
<stop offset="1" stop-color="#50CA88"/>
</radialGradient>
<clipPath id="clip0_1_48">
<rect width="40" height="40" fill="white"/>
</clipPath>
</defs>
</svg>
